<?xml version="1.0" encoding="UTF-8"?>
<svg id="_圖層_1" data-name="圖層 1" xmlns="http://www.w3.org/2000/svg" viewBox="0 0 887.3 874.54">
  <defs>
    <style>
      .cls-1 {
        fill: #f7f3db;
      }

      .cls-2 {
        fill: #25303d;
      }
    </style>
  </defs>
  <path class="cls-2" d="M625.05.2c27.13-1.53,57.63,5.71,81.42,18.84,8.12,4.48,15.56,10.01,22.79,15.8,32.29,25.87,53.45,62.62,57.89,103.99,4.57,42.59-8.7,83.26-35.43,116.35,6.33,14.79,13.99,29.14,21.39,43.41l20.07,39.18c18.44,35.57,36.38,71.35,55.26,106.69l23.2,44.12c5.32,10.14,11.02,20.32,15.67,30.78-5.06,5.58-11.92,10.37-17.76,15.15-10.55,8.62-21,17.35-31.36,26.19l-51.34,45.29c-36.73,32.31-66.91,56.18-115.25,68.4-18.47,4.67-37.26,6.93-55.88,10.7-25.66,5.42-50.43,14.44-73.55,26.81-34.09,18.66-62.81,43.73-89.94,71.32-15.64,15.91-30.83,32.76-48.42,46.56-48.91,38.38-96.42,46.97-157.25,44.32-13.73-.6-27.77-1.22-41.42-2.86-5.43-8.99-9.86-19.11-14.72-28.48-5.21-9.05-9.61-18.67-14.45-27.94-7.86-15.06-16-29.95-23.7-45.09-5.65,10.31-9.83,22.09-13.41,33.28-1.53,4.79-2.67,9.92-4.57,14.57-.51,1.25-1.01,2.18-2.24,2.84-1.96,1.06-4.02.82-6.06.18-.18-.15-.37-.28-.53-.44-2.15-2.11-3.49-17.46-4.2-21.51-2.74-15.5-7.31-30.75-12.16-45.7-12.93-39.84-34.57-82.03-58.35-116.47-12.38-17.93-27.45-33.71-36.59-53.7-16.6-36.28-18.98-79.65-4.96-117.16,15.58-41.67,44.2-70.71,84.4-88.93-6.2-13.35-13.8-26.32-20.62-39.37l-45.91-88.15c-3.53-6.89-15.86-28.18-17.45-34.19-.37-1.41-.24-3.05.65-4.26.71-.96,1.99-1.61,3.17-1.72,5.34-.52,11.46.65,16.83,1.07,9.41.7,18.82,1.29,28.25,1.77,14.86.75,29.63,2.03,44.53,2.17,16.18.15,32.77.04,48.84-2.14,55.88-7.58,83.35-31.94,121.77-70.01,15.69-15.5,31.51-30.86,47.47-46.08,20.64-19.38,42.21-39.87,67.79-52.64,40.3-20.11,93.92-29.19,138.55-31.64,9.14-.49,18.29-.72,27.44-.7,5.85-.04,11.9.17,17.72-.46,6.6-.71,12.92-3.94,19.34-5.63,10.85-2.85,21.98-3.86,33.14-4.51Z"/>
  <path class="cls-1" d="M383.55,57.93c2.55,2.73,4.68,8.84,6.43,12.35,5.17,10.4,10.43,20.76,15.47,31.23,3,6.22,5.61,12.63,8.86,18.73-3.44,2.1-7.18,3.77-10.8,5.55,2.31,4.68,5.74,9.09,8.32,13.68,3.37-1.45,6.6-3.29,9.84-5,13.1,25.41,24.95,51.46,37.41,77.18,8.01,16.52,16.78,32.74,24.91,49.22,8.85,17.92,17.27,36.32,27.02,53.76-25.63,6.7-51.04,13.1-73.84,27.12-30.04,18.46-50.41,51.16-65.84,82.01-16.7,33.37-30.47,75.63-66.47,93.14-.67-7.05-.69-14.13-1.74-21.16-4.92-33.12-20.04-62.08-42.99-86.26-9.56-9.71-21.03-18.81-32.95-25.41-31.22-16.91-67.26-22.75-102.22-16.57-7.3,1.28-14.36,3.37-21.47,5.42-27.39-50.78-54.1-101.92-80.11-153.42,8.81,1.31,18.04,1.37,26.92,1.96,18.7,1.23,37.37,2.48,56.12,2.59,67.21.39,102.63-8.37,153.26-54.38,15.77-14.52,31.2-29.41,46.28-44.67,24.08-23.99,48.5-49.16,77.59-67.08Z"/>
  <path class="cls-2" d="M386.64,134.87c2.69,1.03,8.37,10.6,10.28,13.51-8.88,5.8-17.54,12.68-25.47,19.73-2.69,2.4-8.68,9.66-11.62,10.63-3.86-3.82-7.65-7.52-11.76-11.07,9.82-13.2,25.29-23.39,38.57-32.81Z"/>
  <path class="cls-2" d="M287.16,301.39l16.1,1.79c-.24,6.49-.85,12.96-.98,19.46-.09,4.31,1.08,24.59-.15,26.89-5.03.48-10.06.92-15.09,1.3-1.4-16.61-1.48-32.84.13-49.44Z"/>
  <path class="cls-2" d="M304.8,367.18h.42c1.08.91,6.78,22.52,7.96,25.99,1.69,4.98,3.82,9.76,5.96,14.55-3.25,2.31-10.14,8.21-13.85,8.77-7.43-15-12.45-30.4-15.68-46.79,5.06-.88,10.12-1.72,15.19-2.51Z"/>
  <path class="cls-2" d="M335.42,180.89c4.33,3.69,9.02,7,13.62,10.34-4.21,5.21-8.16,10.62-11.82,16.23-2.66,4.15-8.89,16.82-11.86,19.38-4.84-2-9.73-3.9-14.65-5.7,5.94-14.61,15.54-27.54,24.72-40.24Z"/>
  <path class="cls-2" d="M304.04,235.92c4.59,2.69,9.83,4.4,14.77,6.34-3.49,8.53-6.38,17.3-8.63,26.24-.89,3.61-2.57,14.36-4.51,16.67-5.16-.71-10.19-1.62-15.27-2.82,3.61-16.06,7.48-31.14,13.64-46.43Z"/>
  <path class="cls-2" d="M327.52,422.48c3.18,3.36,5.46,7.91,8.41,11.55,5.35,6.6,11.66,12.28,17.96,17.95-2.24,2.64-8.3,11.09-11.45,11.52-11.35-10.98-18.6-19.09-28.1-31.85,4.21-3.22,8.84-6.1,13.18-9.17Z"/>
  <path class="cls-1" d="M625.81,10.23c16.36-.03,32.03,1.73,47.73,6.57,37.87,11.67,69.6,36.97,88.12,72.23,22.34,42.96,21.65,94.26-1.83,136.6-10.08,17.76-23.91,32.11-36.12,48.28-12.17,16.11-22.37,33.32-32.41,50.79-17.46,31.11-31.87,63.84-43.02,97.73-3.34,10.11-5.97,20.43-9.14,30.6l-1.26-4.16c-16.17-50.71-55.07-115.06-88.75-156.25-5.87-7.18-11.79-14.4-17.93-21.35-11.31-12.8-22.43-24.34-30.96-39.37-10.71-19.25-16.93-40.68-18.17-62.68-2.43-39.97,11.1-79.28,37.63-109.27,27.79-31.02,64.8-47.52,106.11-49.72Z"/>
  <path class="cls-2" d="M624.25,42.2c9.9-.88,21.18.12,30.82,2.54,26.27,6.32,48.94,22.85,62.99,45.93,3.47,5.82,11.42,21.11,9.63,27.72-.75,2.76-3.74,5.81-4.04,8.41-.51,4.4,4.13,7.97,6.6,11.08,1.46,1.85,3.06,4.27,2.49,6.76-.79,3.46-4.73,5.62-7.53,7.32,1.14,7.74,2.28,18.44-.6,25.89,2.67,2.8,4.9,5.74,5.48,9.67.79,5.29-2.09,9.42-4.98,13.49,3.25,4.96,4.4,9.53,4.57,15.41.27,9.36.52,17.68-6.35,24.86-19.02,19.88-64.47,22.98-90.78,23.66-26.36.24-72.68-3.65-92.03-22.48-6.64-6.46-6.66-14.08-6.69-22.76-.02-6.62,1.35-12.14,6.13-16.94-15.86-16.61-1.23-17.91,2.81-31.71,1.16-3.96.57-8.01.24-12.05-4.57-2.57-9.29-5.33-12.23-9.83-6.66-10.18,6.71-12.87,8-19.48-.52-3.21-2.91-4.74-5.23-6.74,1.82-16.9,10.08-32.79,20.86-45.73,17.57-21.09,42.81-32.58,69.84-35.02Z"/>
  <path class="cls-1" d="M624.84,51.24c16.32-1.99,34.24,2.45,48.79,9.7,25.18,12.54,38.74,32.45,47.5,58.61-22.67,16.07-55,18.56-82,20.35-32.77.43-67.98-.58-97.15-17.21,3.43-14.6,8.63-27.41,18.34-39.05,16.53-19.84,39.16-30.03,64.52-32.39Z"/>
  <path class="cls-2" d="M671.46,75.2c2.05-.79,4.36.23,5.16,2.27s-.19,4.36-2.23,5.18c-2.06.83-4.41-.18-5.22-2.25-.81-2.07.21-4.4,2.29-5.2Z"/>
  <path class="cls-2" d="M593.77,70.08c1.37-.45,2.87-.13,3.93.84,1.06.97,1.52,2.44,1.19,3.84s-1.39,2.51-2.77,2.91c-2.08.6-4.26-.58-4.9-2.65-.64-2.07.49-4.27,2.55-4.95Z"/>
  <path class="cls-2" d="M573.86,100.35c1.23-.78,2.78-.83,4.05-.13,1.27.7,2.06,2.05,2.05,3.5-.01,1.45-.82,2.79-2.1,3.47-1.88,1-4.21.34-5.29-1.5-1.08-1.84-.51-4.2,1.29-5.34Z"/>
  <path class="cls-2" d="M619.39,63.56c1.67.1,3.62.08,5.03,1.14.92.69,1.49,1.52,1.49,2.7,0,1.5-1.01,2.7-1.89,3.81-1.52.16-2.87.37-4.23-.54-.9-.6-1.43-1.53-1.64-2.57-.35-1.7.35-3.15,1.24-4.54Z"/>
  <path class="cls-2" d="M634.94,111.87c1.2-.78,2.73-.84,3.99-.16,1.26.68,2.05,1.99,2.06,3.42.01,1.43-.76,2.76-2.01,3.46-1.85,1.03-4.18.41-5.28-1.4-1.09-1.82-.55-4.17,1.23-5.32Z"/>
  <path class="cls-2" d="M660.4,107.62c1.27-.61,2.78-.48,3.92.34,1.15.82,1.76,2.2,1.61,3.6-.16,1.4-1.06,2.61-2.36,3.15-1.95.81-4.19-.07-5.05-2-.86-1.93-.03-4.19,1.88-5.09Z"/>
  <path class="cls-2" d="M626.69,87.2c1.98-.83,4.25.11,5.07,2.09.82,1.98-.11,4.25-2.1,5.07-1.97.82-4.24-.12-5.06-2.09s.11-4.24,2.08-5.06Z"/>
  <path class="cls-2" d="M647.81,67.37c1.31-.42,2.76-.11,3.77.83,1.02.93,1.45,2.34,1.14,3.69-.31,1.34-1.33,2.42-2.65,2.8-2.01.59-4.12-.55-4.74-2.55-.62-2,.49-4.13,2.48-4.77Z"/>
  <path class="cls-2" d="M692.9,101.7c2.09-.34,4.05,1.08,4.39,3.17.33,2.09-1.09,4.05-3.18,4.38-2.08.33-4.04-1.09-4.38-3.17-.33-2.08,1.08-4.04,3.17-4.38Z"/>
  <path class="cls-2" d="M603.65,108.41c1.16-.74,2.62-.79,3.83-.13,1.2.66,1.95,1.93,1.94,3.3,0,1.37-.76,2.63-1.97,3.28-1.77.95-3.98.33-5-1.4-1.02-1.73-.49-3.96,1.2-5.05Z"/>
  <path class="cls-1" d="M719.27,204.72l.25.3c1.62,7.36,2.96,21.55-1.13,28.05-6.14,9.77-29.34,16.27-39.96,18.51-36.02,7.61-97.71,7.04-128.86-13.1-1.26-.99-2.62-2.01-3.63-3.26-5.03-6.18-2.92-18.19-2.07-25.56,1.29-1.19,2.76-2.22,4.16-3.27,2.03.82,4.08,1.59,6.15,2.32,40.33,13.91,126.84,14.71,165.11-3.98Z"/>
  <path class="cls-1" d="M714.28,132.39c.15,0,.31,0,.46.02,2.45.43,7.81,4.97,9.25,6.9,1,1.35,1.45,2.47,1.2,4.18-.5.85-.85,1.34-1.7,1.87-4.77,2.96-13.52,4.26-19.1,5.45-40.04,8.52-83.34,8.72-123.94,4.96-12.58-1.16-24.95-2.43-37.2-5.68-2.12-.88-5.09-2.12-6.25-4.26-.66-1.22-.78-2.12-.41-3.46,1.1-4,6.49-5.96,9.82-7.49,4.64,1.73,9.29,3.49,14,5.01,40.3,13,116.03,11.88,153.87-7.5Z"/>
  <path class="cls-1" d="M700.81,157.63l.98.03c-.36,2.79-27.25,34.92-32.02,41.64-6.1-6.32-12.71-12.1-19.27-17.93-6.49-5.75-13.27-11.16-19.7-16.98,23.52-.73,46.9-2.06,70-6.77Z"/>
  <path class="cls-1" d="M583.59,162.58c7.65.48,15.31.92,22.97,1.3,5.28.27,10.67.26,15.89,1.15,14.36,13.12,30.42,24.82,43.89,38.88-.87,1.76-1.95,3.46-2.93,5.17-.54.9-1.08,1.5-1.86,2.21-2.74.29-5.98-2.8-8.22-4.36-14.12-9.84-28.14-20.2-42.83-29.17-8.65-5.28-18.88-9.01-26.9-15.16Z"/>
  <path class="cls-1" d="M542.81,183.72c4.5.7,11.18,5.72,15.75,7.63,8.24,3.45,17.62,6.26,26.33,8.23,11.7,2.65,24.34,4.16,36.31,4.94,5.95.39,12.68-.26,18.46,1.04,3.2.72,8.92,3.8,10.72,6.53l-1.01.3c-24.51.59-85.37-.24-104.85-14.95-2.16-1.63-3.91-3.74-4.22-6.51-.32-2.83.87-5.02,2.51-7.21Z"/>
  <path class="cls-1" d="M721.69,183.49c.99,1.32,1.78,3.54,1.99,5.18.27,2.13-.51,4.03-1.87,5.65-8.64,10.3-37.72,14.71-51.23,15.93l-1.32.07c-.06-2.05,3.98-6.8,5.27-8.63,16.81-2.73,34.16-6.56,47.16-18.2Z"/>
  <path class="cls-1" d="M549.29,158.45c3.21.73,6.45,1.1,9.71,1.5l-3.79,2.5-5.38,3.29c-.38-2.45-.48-4.83-.54-7.29Z"/>
  <path class="cls-1" d="M362.17,476.37c17.67,8.69,36.19,14.22,55.44,18.17,22.76,4.67,43.6,7.13,66.09,14.42,29.9,9.68,56.44,27.22,87.3,34.63,18.05,4.34,36.38,6.06,54.86,3.77,6.58,12.35,12.53,25.09,18.82,37.59,12.74,25.02,25.23,50.16,37.48,75.43-20.39,7.44-42.53,9.83-63.79,13.68-43.5,8.09-84.43,26.5-119.33,53.7-21.62,15.52-41.46,34.87-60.04,53.81-15.38,15.67-30.46,32.2-48.49,44.92-3.89-7.16-7.89-14.3-11.44-21.63-5-10.31-9.51-20.86-14.61-31.13l-59.19-117.52c-9.33-18.35-18.02-37.25-28.06-55.21,14.68-22.5,21.33-40.65,25.75-67.07,26.6-9.84,46.41-32.84,59.21-57.54Z"/>
  <path class="cls-2" d="M463.98,569.1c5.49,1.66,10.96,4.98,16.09,7.55-6.29,13.56-12.21,27.29-17.75,41.17-5.15-2.8-10.63-4.98-16.01-7.29.99-3.73,2.78-7.47,4.26-11.04,4.23-10.25,9.13-20.17,13.41-30.39Z"/>
  <path class="cls-2" d="M418.9,682.74c5.18,2.53,10.57,4.57,15.73,7.17-2.52,5.55-4.51,11.36-6.84,16.99-3.46,8.41-7.34,16.64-11.61,24.67l-.52.68c-2.45.04-11.26-5.71-14.34-6.99,5.44-14.34,13.07-27.84,17.58-42.53Z"/>
  <path class="cls-2" d="M393.09,739.15c5.15,2.78,10.03,6,14.95,9.17-7.7,13.92-13.29,22.35-24.04,34.34l-.75.38c-4.39-1.95-9.57-7.96-13.86-10.93,9.39-9.36,17.54-21.25,23.71-32.96Z"/>
  <path class="cls-2" d="M440.03,626.49c5.43,1.99,11.35,3.87,16.1,7.22-5.31,13.01-9.86,26.31-15.56,39.15-2.67.32-12.55-4.73-15.49-6.09,5.34-13.12,10.98-26.7,14.95-40.29Z"/>
  <path class="cls-2" d="M492.01,518.29c5.31,1.93,10.47,4.77,15.16,7.89-2.37,4.91-5.71,9.51-8.46,14.23-4.11,7.2-7.91,14.56-11.4,22.08-4.86-3.32-10.27-5.94-15.56-8.49,6.93-11.77,12.05-24.68,20.26-35.71Z"/>
  <path class="cls-1" d="M143.32,375.22c23.84-1.16,48.26,2.74,69.91,13.03,34.01,16.3,60.16,45.44,72.71,81.02,12.1,33.55,10.53,70.51-4.38,102.91-2.99,6.65-6.23,13.25-10.35,19.28-8.06,11.78-18.06,21.82-27.59,32.37-12.91,14.07-25.39,28.53-37.42,43.37-25.77,31.95-47.82,66.73-65.72,103.67-3.22,7.19-6.15,14.63-9.81,21.61-2.28-13.09-6.19-25.56-10.33-38.15-12.48-38.18-29.64-74.66-51.1-108.61-6.82-10.91-14.21-21.46-22.15-31.59-3.76-4.89-7.88-9.52-11.41-14.58-13.32-19-21.64-41.05-24.2-64.12-4.04-38.75,6.41-77.89,31.18-108.25,25.43-31.18,61.16-48.05,100.68-51.96Z"/>
  <path class="cls-2" d="M204.93,434.27c1.47.61,1.93.73,2.94,2.01,1.29,5.83-20.01,21.95-23.37,30.93-1.92,5.14-.99,9.28,1.17,14.06,5.42-4.61,28.34-32.57,32.26-33.5,1.4-.33,2.05.11,3.25.71.38.58.93,1.1.91,1.82-.12,3.44-25.89,30.92-30.28,36.05,2.41,2.84,5.14,5.43,7.76,8.08,7.57-7.96,14.96-16.13,22.4-24.22,2.6-2.83,5.18-6.6,8.12-8.98,1.44-1.17,2.7-1.59,4.58-1.41,1.25.8,1.32.83,1.84,2.22-.38,5.86-25.78,29.73-30.7,35.62l-.46.55c24.09,9.32,31.41-23.29,42.49-25.92,1.2.35,1.22.28,1.88,1.32.1,1.06.13,1.92-.2,2.95-2.4,7.45-21.29,26.35-28.47,29.88-8.66,4.25-17.46,3.64-26.38.67-8.29,11.98-18.28,22.62-27.17,34.12,3.95,4.55,8.56,8.73,12.83,13,6.3,6.3,12.49,12.71,18.9,18.9,4.51,4.36,10.11,8.82,13.88,13.82,1.4,1.86,2.61,4.01,2.66,6.4.04,1.91-.78,3.56-2.13,4.89-1.93,1.9-4.55,2.84-7.24,2.78-1.68-.03-3.41-.44-4.86-1.33-4.53-2.79-8.62-7.89-12.36-11.67-5.58-5.66-11.19-11.28-16.85-16.86-5.48-5.31-10.99-10.58-16.54-15.82-10.36,13.1-20.95,25.98-31.58,38.86-3.98,4.82-7.9,10.87-12.53,15.03-2.39,2.1-5.35,3.44-8.51,3.83-4.65.56-9.57-1.05-13.12-4.08-2.87-2.46-4.8-5.92-5-9.73-.14-2.66.64-5.45,2.06-7.7,4.45-7.04,12.29-14.26,17.95-20.63,11.87-13.39,23.66-26.85,35.37-40.38-7.86-7.11-15.02-14.98-22.65-22.34-2.09,1.28-4.29,2.46-6.67,3.08-8.52,2.2-18.03-.3-25.34-4.89-10.42-6.54-17.46-17.5-20.12-29.42-1.41-6.33-1.75-13.71,1.99-19.33,2.25-3.38,5.75-5.53,9.71-6.3,10.73-2.08,23.66,2.69,32.41,8.71,8.02,5.52,15.57,13.63,17.25,23.57,1.24,7.37-.84,14.73-5.06,20.77,6.98,7.83,14.78,14.82,22.16,22.25,4.05-3.99,7.66-8.6,11.47-12.83,7.32-8.07,14.72-16.09,22.18-24.04-2.44-5.54-3.98-10.92-3.23-17.04,1.41-11.58,10.75-19.19,18.46-26.95,3.87-3.9,7.66-8.08,11.96-11.51Z"/>
  <path class="cls-1" d="M182.82,498.51c1.31,1.11,2.46,2.4,3.64,3.64-19.58,26.28-40.98,51.68-62.12,76.71-6.04,7.15-12.99,17.5-19.64,23.61-1.92,1.77-3.79,1.59-6.21,1.46-1.89-1.55-4.22-3.33-4.28-6.02-.02-1.33,1.03-2.47,1.82-3.46,8.01-10.01,17.46-19.25,26.01-28.84,20.06-22.55,40.32-44.92,60.78-67.11Z"/>
  <path class="cls-1" d="M743.7,264.38c2.41,2.43,6.46,12.99,8.29,16.54l36.35,70.56,86.5,165.15c-13.75,12.41-28.68,23.62-42.58,35.93l-52.47,45.88c-15.84,13.75-31.45,27.93-49.17,39.27-11.96,7.65-25.36,13.69-38.2,19.74-11.86-24.66-24.08-49.15-36.65-73.46-6.33-12.5-13.52-25.3-18.71-38.3,25.88-7.08,51.52-20.11,78.53-21.73,32.41-1.94,65.8,12.78,89.78,34.12,3.32-2.13,6.14-4.7,8.98-7.42-12.37-16.75-37.24-29.29-56.73-35.82-55.14-14.88-77.23,5.77-126.61,17.96-5.37-11.39-11.39-22.53-17.01-33.8-8.97-18-17.7-35.96-27.7-53.43,7.28-3.47,14.76-6.49,22.05-9.92-1.66-5.14-4.15-10.03-6.42-14.92-7.27,2.56-14.5,5.26-21.67,8.08-9.45-15.16-16.82-31.95-24.78-47.92-9.1-18.26-18.84-36.28-27.08-54.95,8.86-2.86,17.78-5.55,26.75-8.06,8.25,9.23,14.95,20.49,21.61,30.92,25.24,39.56,48.3,82.18,58.66,128.26.89,1.1,1.63,1.85,2.94,2.45,1.45.66,2.92.76,4.38.03,1.75-.87,2.7-2.22,3.28-4.05,1.71-5.46,1.59-11.82,2.73-17.5,2.29-11.38,5.71-22.58,8.9-33.73,12.41,1.73,25.23,4.09,37.41,6.98,1.02-5.77,2.6-11.36,4.17-17-10.98-3.33-23.81-4.51-35.21-6.55,17.57-48.83,46.97-102.88,79.67-143.32Z"/>
  <path class="cls-2" d="M825.98,486.52c4.14,4.78,7.59,9.79,9.06,16.03,3.18,13.51-2.1,26.1-9.13,37.4l-3.36-1.69c-2.52-1.44-4.83-2.86-7.09-4.68,3.3-15.95,3.93-22.35-3.24-37.47,4.84-2.62,9.32-6.32,13.77-9.59Z"/>
  <path class="cls-2" d="M717.88,419.61c.57.11,1.14.22,1.7.36,6.79,1.75,38.58,13.14,41.44,17.92-2.43,4.23-4.69,8.44-6.75,12.88-.05.03-.09.09-.15.1-.01,0-1.09.23-1.12.23-2.89-.58-15.08-6.6-18.68-8.1-7.25-3.01-14.72-5.48-22.14-8.03l5.7-15.36Z"/>
  <path class="cls-2" d="M777.99,446.22c9.67,3.96,27.73,19.21,35.24,27-3.25,3.57-6.37,7.12-9.23,11.02l-1.02.81c-1.82-.26-11.25-9.46-13.78-11.48-6.16-4.92-12.84-9.32-19.31-13.83,2.19-4.83,5.03-9.21,8.1-13.51Z"/>
  <path class="cls-1" d="M269.48,609.77c2.08,1.27,81.09,158.86,87.92,174.73-12.2,8.2-25.49,12.12-40.14,12.65l-.02,17.3c18.45-1.81,31.81-5.64,47.99-14.84,5.22,11.11,10.54,22.17,15.98,33.18-28.57,18.31-58.28,27.78-92.09,30.32-24.77,2.84-52.49.39-77.41-1.3-5.29-11.46-11.38-22.46-17.29-33.6l-19.93-38.2c-5.48-10.41-11.22-20.69-16.39-31.26,6.15-11.28,12.32-22.82,19.5-33.48,4.55,6.68,8.96,13.58,14.48,19.52,4.66-2.92,8.89-6.54,13.18-9.98-5.86-8.32-12.16-16.77-16.78-25.86,4.1-8.35,10.84-16.13,16.52-23.49,10.67-14.03,21.88-27.65,33.59-40.82,10.42-11.66,21.21-22.53,30.88-34.87Z"/>
  <path class="cls-2" d="M215.07,746.92c9.87,10.91,20.1,20.03,32.11,28.44-2.49,4.14-5.95,9.81-9.51,13.01l-1.24-.33c-12.27-7.97-24.29-18.75-33.31-30.2,3.99-3.67,8.19-6.97,11.95-10.92Z"/>
  <path class="cls-2" d="M261.08,784c11.7,5.6,24.76,11.06,37.77,12.11-.04,5.86-.39,11.74-.64,17.6l-5.76-.98c-13.73-3.38-26.03-7.87-38.79-13.9,2.52-4.94,4.63-10.03,7.42-14.84Z"/>
  <path class="cls-1" d="M516,329.04l1.49-.05c1.8,1.12,47.4,92.76,53.36,104.09-6.64,3.51-12.72,8.07-18.72,12.56,3.12,4.74,6.8,9.23,10.08,13.88,5.11-2.91,9.79-6.68,14.92-9.66,5.7,9.57,10.58,19.82,15.71,29.71,9.25,17.86,18.48,35.91,26.66,54.29-27.97,4.6-68.12-11.34-93.38-23.06-8.25-3.3-16.3-7.14-24.55-10.47-11.97-4.83-24.65-8.92-37.15-12.12-13.92-3.56-28.21-5.51-42.29-8.31-18.79-3.74-35.62-9.37-52.9-17.68,2.71-6.2,6.15-12.29,9.17-18.36,5.43-10.91,10.72-21.95,16.86-32.5,33.87-58.21,59.31-65.99,120.74-82.32Z"/>
  <path class="cls-2" d="M538.62,456.83c2.09.68,9.83,10.94,11.77,13.26-6.27,6.12-12.19,12.59-17.73,19.37-1.54,1.92-6.26,9.12-7.8,10.11-1.05.68-1.39.22-2.45-.13-4.5-2.89-8.99-5.61-13.84-7.89,10.49-10.92,18.32-24.95,30.05-34.72Z"/>
  <path class="cls-1" d="M545.94,21.27l7.24-.27c-22.27,10.76-45.09,34.6-58.04,55.66-4.5,7.31-8,15.26-11.7,23-5.21.47-10.4,1.65-15.54,2.63.89,3.23,3.29,13.47,4.89,15.68.88,1.21,3.2-.61,4.58.25-.34,4.01-1.86,7.93-2.71,11.86-1.01,4.66-1.55,9.58-2.04,14.32-3.68,35.99,5.53,74.88,26.75,104.41,14.07,19.58,31.62,36.84,46.85,55.55-8.67,2.68-17.34,5.43-26.17,7.55-6.8-15.91-14.95-31.36-22.76-46.79-13.44-26.45-26.62-53.04-39.52-79.75-5.89-11.69-11.62-23.46-17.21-35.29-3.06-6.36-6.34-12.65-9.02-19.18,7.9-3.19,16.28-5.42,24.44-7.84-1.99-5.41-3.87-10.92-5.11-16.56-9.58,1.95-18.22,5.78-27.57,8.36-4.67-7.99-8.36-16.65-12.52-24.93-6.25-12.41-12.87-24.69-18.87-37.21,10.68-5.85,23.34-9.93,34.99-13.43,38.61-11.72,78.71-17.78,119.06-18.01Z"/>
  <path class="cls-2" d="M217.6,118.71c.36-.06.8-.14,1.15-.1,1.13.15,1.36.36,1.99,1.27l-.52.81c-6.05,3.68-13.8,5.31-20.53,7.41-26.23,8.18-52.91,14.87-79.9,20.05-14.18,2.85-28.54,5.79-42.94,7.2-1.36.24-2.46.38-3.85.2l-.38-.61c.11-.13.2-.27.32-.38,2.83-2.66,14.02-5.06,18.07-6.26,29.25-8.89,58.87-16.48,88.79-22.75,12.38-2.68,25.13-5.99,37.79-6.84Z"/>
  <path class="cls-2" d="M687.76,730.7c3.07-.18,8.15-1.07,10.77.89l-.16.83c-9.27,7.21-96.8,18.26-112.5,19.51-2.76.17-5.54.42-8.3.48-1.45.03-2.99.12-4.07-.92l.59-.96c4.52-2.72,10.92-3.12,16.03-4.32,32.3-7.62,64.43-13.58,97.64-15.5Z"/>
  <path class="cls-2" d="M862.05,614.76c1.02.15,1.25.19,2.07.81.07.83.17,1.05-.16,1.87-1.7,4.2-6.9,8.95-10.07,12.3-24.54,26.03-56.32,47.2-89.03,61.46l-1.57-.46-.4-.87c2-3.3,28.04-20.13,33.49-24.01,12.6-8.95,25.12-17.91,37.25-27.5,9.67-7.65,18.92-15.74,28.42-23.6Z"/>
  <path class="cls-2" d="M548.68,800.47c10.15,2.1,68.89,33.84,75.63,42.27.89,1.11.54,1.56.32,2.9-6.2-1.2-12.37-3.99-18.05-6.7-9.15-4.37-54.07-28.85-57.93-35.64-.71-1.24-.4-1.57.03-2.83Z"/>
  <path class="cls-2" d="M164.05,62.85c9.77-.04,63.33,8,69.76,15.13,1.07,1.19.77,1.67.62,3.18-10.79.85-62.08-9.35-69.37-15.4-1.02-.85-.86-1.69-1.01-2.91Z"/>
  <path class="cls-2" d="M234.33,4.84c.74,0,1.84-.08,2.52.28,6.99,3.73,32.06,42.04,35.66,50.87.99,2.43,1.25,3.62.21,6.09l-2.18-.18c-7.37-4.43-29.08-39.41-33.67-48.21-1.31-2.52-3.43-5.99-2.55-8.85Z"/>
</svg>